{"title":"Michael.Kohlhaas.2013.Swesub.BRRip.x264.mp4","uid":9777384,"size":733770035,"categoryP":"video","categoryS":"movies","magnet":"?xt=urn:btih:499e89386e6c191c7df97771102c4dfad3915d0f&amp;dn=Michael.Kohlhaas.2013.Swesub.BRRip.x264.mp4&amp;tr=udp%3A%2F%2Ftracker.openbittorrent.com%3A80&amp;tr=udp%3A%2F%2Fopen.demonii.com%3A1337&amp;tr=udp%3A%2F%2Ftracker.coppersurfer.tk%3A6969&amp;tr=udp%3A%2F%2Fexodus.desync.com%3A6969","seeders":1,"leechers":0,"uploader":null,"files":-1,"time":1395053752,"description":"Swedish Hardcoded sub\n &lt;a href=&quot;\nhttp://www.imdb.com/title/tt2054790/&quot; rel=&quot;nofollow&quot; target=&quot;_NEW&quot;&gt;\nhttp://www.imdb.com/title/tt2054790/&lt;/a&gt;\n\n\nGeneral\nComplete name                  : Michael.Kohlhaas.2013.Swesub.BRRip.x264.mp4\nFormat                         : MPEG-4\nFormat profile                 : Base Media\nCodec ID                       : isom\nFile size                      : 700 MiB\nDuration                       : 2h 1mn\n\nVideo\nID                             : 1\nFormat                         : AVC\nFormat/Info                    : Advanced Video Codec\nFormat profile                 : &lt;a class=&quot;__cf_email__&quot; href=&quot;/cdn-cgi/l/email-protection&quot; data-cfemail=&quot;c58daca2ad8589f7ebf4&quot;&gt;[email&amp;#160;protected]&lt;/a&gt;&lt;script cf-hash='f9e31' type=&quot;text/javascript&quot;&gt;\n/* &lt;![CDATA[ */!function(){try{var t=&quot;currentScript&quot;in document?document.currentScript:function(){for(var t=document.getElementsByTagName(&quot;script&quot;),e=t.length;e--;)if(t[e].getAttribute(&quot;cf-hash&quot;))return t[e]}();if(t&amp;&amp;t.previousSibling){var e,r,n,i,c=t.previousSibling,a=c.getAttribute(&quot;data-cfemail&quot;);if(a){for(e=&quot;&quot;,r=parseInt(a.substr(0,2),16),n=2;a.length-n;n+=2)i=parseInt(a.substr(n,2),16)^r,e+=String.fromCharCode(i);e=document.createTextNode(e),c.parentNode.replaceChild(e,c)}}}catch(u){}}();/* ]]&gt; */&lt;/script&gt;\nFormat settings, CABAC         : Yes\nFormat settings, ReFrames      : 5 frames\nCodec ID                       : avc1\nCodec ID/Info                  : Advanced Video Coding\nDuration                       : 2h 1mn\nBit rate                       : 738 Kbps\nWidth                          : 640 pixels\nHeight                         : 272 pixels\nDisplay aspect ratio           : 2.35:1\nFrame rate mode                : Constant\nFrame rate                     : 23.976 fps\nColor space                    : YUV\nChroma subsampling             : 4:2:0\nBit depth                      : 8 bits\nScan type                      : Progressive\nBits/(Pixel*Frame)             : 0.177\nStream size                    : 641 MiB (92%)\nWriting library                : x264 core 140 r2377 1ca7bb9\n\n\nAudio\nID                             : 2\nFormat                         : AAC\nFormat/Info                    : Advanced Audio Codec\nFormat profile                 : LC\nCodec ID                       : 40\nDuration                       : 2h 1mn\nBit rate mode                  : Variable\nBit rate                       : 64.0 Kbps\nMaximum bit rate               : 78.8 Kbps\nChannel count                  : 2 channels\nChannel positions              : Front: L R\nSampling rate                  : 48.0 KHz\nCompression mode               : Lossy\nStream size                    : 55.6 MiB (8%)\nLanguage                       : French","torrent":{"xt":"urn:btih:499e89386e6c191c7df97771102c4dfad3915d0f","amp;dn":"Michael.Kohlhaas.2013.Swesub.BRRip.x264.mp4","amp;tr":["udp%3A%2F%2Ftracker.openbittorrent.com%3A80","udp%3A%2F%2Fopen.demonii.com%3A1337","udp%3A%2F%2Ftracker.coppersurfer.tk%3A6969","udp%3A%2F%2Fexodus.desync.com%3A6969"],"infoHash":"499e89386e6c191c7df97771102c4dfad3915d0f","infoHashBuffer":{"type":"Buffer","data":[73,158,137,56,110,108,25,28,125,249,119,113,16,44,77,250,211,145,93,15]},"announce":[],"urlList":[]}}